<svg width="156" height="126" viewBox="0 0 156 126" fill="none" xmlns="http://www.w3.org/2000/svg">
<path d="M155.606 59.1098L140.867 27.9828C140.549 27.3095 140.009 26.8005 139.379 26.5022C139.361 26.494 139.349 26.4803 139.334 26.4721L83.8029 0.299668C83.3801 0.0971544 82.9216 0 82.4644 0C82.2379 0 82.0114 0.0314716 81.7931 0.0807325C81.7739 0.0848376 81.756 0.0889425 81.7382 0.0930476C81.6531 0.112204 81.5707 0.134101 81.4897 0.164202C81.4568 0.172412 81.4211 0.177885 81.3909 0.191569L9.25108 26.3598C9.17283 26.3899 9.10007 26.431 9.02457 26.4638C8.99162 26.4775 8.95044 26.4857 8.91612 26.5007C8.89416 26.5103 8.87493 26.5308 8.84885 26.5418C8.74451 26.5965 8.64842 26.6636 8.55232 26.7265C7.88926 27.1658 7.4033 27.8294 7.22206 28.6094L0.108243 59.1125C-0.450474 61.4935 1.19826 64.2083 4.02608 65.5548L7.18628 67.0668V94.2079C7.18628 97.4194 9.09586 100.642 11.729 101.884L61.7668 125.47C62.5109 125.822 63.2769 126 64.0457 126H68.1958C68.9522 126 69.7224 125.86 70.487 125.58L135.496 101.999C138.706 100.834 141.125 97.4851 141.125 94.2094V69.9815L151.083 66.3801C153.315 65.5741 154.982 64.1688 155.661 62.531C156.131 61.3898 156.112 60.1734 155.608 59.1102L155.606 59.1098ZM134.046 27.4353L82.4651 46.0844V3.12395L134.046 27.4353ZM79.3338 47.2162L65.802 52.1109L23.4782 32.1604L14.3943 27.8185L79.3366 4.25821L79.3352 47.2151L79.3338 47.2162ZM3.16299 59.8188L10.2715 29.3156L63.0927 54.4603C62.9788 54.812 62.7111 55.8944 62.7111 55.8944L55.9213 85.0265C55.7909 85.5779 55.2665 85.8639 54.5581 85.8639C54.0722 85.8639 53.5052 85.7339 52.9231 85.4534L5.38405 62.7415C3.94121 62.0505 2.94731 60.7424 3.16559 59.8187L3.16299 59.8188ZM63.1008 122.648L13.07 99.0633C11.6643 98.3996 10.5194 96.488 10.356 94.6478V94.4931C10.3423 94.3618 10.323 94.2345 10.323 94.095V68.5657L51.5679 88.2727C52.5576 88.742 53.5886 88.9952 54.5592 88.9952C56.7461 88.9952 58.521 87.6829 58.974 85.7371L62.7136 69.6988V120.383C62.7136 121.21 62.8729 121.976 63.1543 122.668C63.1406 122.662 63.1227 122.657 63.1021 122.649L63.1008 122.648ZM137.989 94.0933C137.989 94.2014 137.979 94.3054 137.971 94.4107V94.4189C137.865 96.3237 136.324 98.3734 134.421 99.0618L69.4152 122.648C68.9896 122.803 68.5764 122.875 68.1948 122.875C66.8274 122.875 65.8486 121.925 65.8486 120.382L65.85 62.7441L77.7522 87.8807C78.5497 89.5638 80.3358 90.523 82.6544 90.523C83.7444 90.523 84.9113 90.3109 86.0329 89.9072L137.99 71.1184L137.991 94.0944L137.989 94.0933ZM150.012 63.4493L84.9642 86.9658C84.1556 87.2559 83.3525 87.405 82.6524 87.405C81.6434 87.405 80.8499 87.1067 80.5863 86.5498L65.977 55.6963L65.9097 55.5663L137.986 29.416V29.3311L138.027 29.3175L152.77 60.4487C153.219 61.3915 151.982 62.7352 150.009 63.4495L150.012 63.4493Z" fill="#BDBDBD"/>
</svg>
