<svg width="131" height="35" viewBox="0 0 131 35" fill="none" xmlns="http://www.w3.org/2000/svg">
<path d="M5.16527 31.7195L1.20889 26.5347H0V34.0208H1.29132V28.6973L5.35759 34.0208H6.45659V26.5347H5.16527V31.7195Z" fill="white"/>
<path d="M8.81939 30.8323H12.5285V29.6678H8.81939V27.6992H13.023V26.5347H7.52808V34.0208H13.078V32.8286H8.81939V30.8323Z" fill="white"/>
<path d="M18.6829 30.8323C18.6829 32.2186 17.9686 32.9117 16.8146 32.9117C15.6607 32.9117 14.9463 32.1631 14.9463 30.7768V26.5347H13.655V30.8323C13.655 32.9949 14.8914 34.1317 16.8146 34.1317C18.7653 34.1317 20.0017 33.0226 20.0017 30.7768V26.5347H18.6829V30.8323Z" fill="white"/>
<path d="M30.3872 26.4792L27.1727 33.9099L25.2495 31.1927C26.2935 30.8878 27.0078 30.1669 27.0078 28.9192V28.8914C27.0078 28.226 26.788 27.6715 26.4034 27.2833C25.9363 26.812 25.1945 26.5347 24.2604 26.5347H20.9634V34.0208H22.2547V31.4146H23.8757L25.689 34.0208H27.1177H27.2276H28.4365L29.2058 32.2186H32.7226L33.4644 34.0208H34.8382L31.5961 26.4792H30.3872ZM22.2547 30.25V27.7269H24.1505C25.1121 27.7269 25.689 28.1706 25.689 28.9746V29.0024C25.689 29.751 25.0846 30.25 24.1505 30.25H22.2547ZM29.7004 31.0541L30.9642 28.0597L32.2555 31.0541H29.7004Z" fill="white"/>
<path d="M36.569 26.5347H35.2777V34.0208H40.4705V32.8286H36.569V26.5347Z" fill="white"/>
<path d="M46.1577 29.6678C44.729 29.3351 44.3993 29.0578 44.3993 28.5033V28.4756C44.3993 27.9765 44.8389 27.5883 45.6082 27.5883C46.2951 27.5883 46.9545 27.8656 47.6139 28.3647L48.3008 27.3665C47.559 26.7565 46.6798 26.4238 45.6082 26.4238C44.1246 26.4238 43.0805 27.3111 43.0805 28.5865V28.6142C43.0805 30.0005 43.9597 30.4719 45.5533 30.8601C46.927 31.1928 47.2293 31.47 47.2293 31.9968V32.0246C47.2293 32.5791 46.7347 32.9673 45.9105 32.9673C44.9763 32.9673 44.2894 32.6068 43.5751 31.9968L42.7783 32.9395C43.6575 33.7436 44.729 34.1318 45.883 34.1318C47.4491 34.1318 48.5206 33.3 48.5206 31.8859V31.8582C48.5481 30.6382 47.7238 30.056 46.1577 29.6678Z" fill="white"/>
<path d="M50.5538 30.8323H54.2629V29.6678H50.5538V27.6992H54.73V26.5347H49.235V34.0208H54.7849V32.8286H50.5538V30.8323Z" fill="white"/>
<path d="M59.1258 30.0836L56.8729 26.5347H55.4991V34.0208H56.763V28.6696L59.0984 32.1909H59.1258L61.4887 28.6419V34.0208H62.78V26.5347H61.3788L59.1258 30.0836Z" fill="white"/>
<path d="M65.1978 26.5347H63.9065V34.0208H65.1978V26.5347Z" fill="white"/>
<path d="M69.8411 32.9395C68.4124 32.9395 67.3958 31.7473 67.3958 30.2778V30.2501C67.3958 28.7806 68.4124 27.6161 69.8411 27.6161C70.6928 27.6161 71.3247 28.0042 71.9292 28.5588L72.7534 27.5883C72.0391 26.8952 71.2148 26.4238 69.8411 26.4238C67.5882 26.4238 66.0221 28.1706 66.0221 30.3055V30.3333C66.0221 32.4682 67.6431 34.1872 69.7861 34.1872C71.1874 34.1872 72.0116 33.6882 72.7809 32.8564L71.9566 31.9968C71.3247 32.5514 70.7478 32.9395 69.8411 32.9395Z" fill="white"/>
<path d="M76.8747 26.396C74.5943 26.396 73.0007 28.1705 73.0007 30.2777V30.3054C73.0007 32.4126 74.5943 34.1594 76.8747 34.1594C79.1551 34.1594 80.7486 32.3849 80.7486 30.2777V30.25C80.7486 28.1428 79.1551 26.396 76.8747 26.396ZM79.3749 30.3054C79.3749 31.7472 78.3583 32.9394 76.8747 32.9394C75.391 32.9394 74.347 31.7195 74.347 30.2777V30.25C74.347 28.8082 75.3636 27.616 76.8472 27.616C78.3308 27.616 79.3749 28.8359 79.3749 30.3054Z" fill="white"/>
<path d="M86.6556 31.7195L82.6718 26.5347H81.4629V34.0208H82.7542V28.6973L86.848 34.0208H87.947V26.5347H86.6556V31.7195Z" fill="white"/>
<path d="M91.7661 26.5347H88.9911V34.0208H91.7661C94.1014 34.0208 95.695 32.3849 95.695 30.2777V30.25C95.695 28.1428 94.1014 26.5347 91.7661 26.5347ZM94.3212 30.3055C94.3212 31.775 93.3046 32.8286 91.7386 32.8286H90.2824V27.7269H91.7386C93.3046 27.7269 94.3212 28.8082 94.3212 30.3055Z" fill="white"/>
<path d="M101.355 30.8323C101.355 32.2186 100.64 32.9117 99.4864 32.9117C98.3324 32.9117 97.6181 32.1631 97.6181 30.7768V26.5347H96.3268V30.8323C96.3268 32.9949 97.5631 34.1317 99.4864 34.1317C101.437 34.1317 102.673 33.0226 102.673 30.7768V26.5347H101.382V30.8323H101.355Z" fill="white"/>
<path d="M107.097 32.9395C105.668 32.9395 104.652 31.7473 104.652 30.2778V30.2501C104.652 28.7806 105.668 27.6161 107.097 27.6161C107.949 27.6161 108.581 28.0042 109.185 28.5588L110.009 27.5883C109.295 26.8952 108.471 26.4238 107.097 26.4238C104.844 26.4238 103.278 28.1706 103.278 30.3055V30.3333C103.278 32.4682 104.899 34.1872 107.042 34.1872C108.443 34.1872 109.267 33.6882 110.037 32.8564L109.213 31.9968C108.581 32.5514 108.004 32.9395 107.097 32.9395Z" fill="white"/>
<path d="M110.037 27.7546H112.4V34.0208H113.691V27.7546H116.054V26.5347H110.037V27.7546Z" fill="white"/>
<path d="M120.148 26.396C117.867 26.396 116.274 28.1705 116.274 30.2777V30.3054C116.274 32.4126 117.867 34.1594 120.148 34.1594C122.428 34.1594 124.021 32.3849 124.021 30.2777V30.25C124.021 28.1428 122.428 26.396 120.148 26.396ZM122.648 30.3054C122.648 31.7472 121.631 32.9394 120.148 32.9394C118.664 32.9394 117.62 31.7195 117.62 30.2777V30.25C117.62 28.8082 118.636 27.616 120.12 27.616C121.604 27.616 122.648 28.8359 122.648 30.3054Z" fill="white"/>
<path d="M129.022 31.1927C130.066 30.8877 130.78 30.1668 130.78 28.9191V28.8914C130.78 28.226 130.56 27.6715 130.176 27.2833C129.709 26.8119 128.967 26.5347 128.033 26.5347H124.736V34.0208H126.027V31.4145H127.648L129.461 34.0208H131L129.022 31.1927ZM126.055 30.25V27.7269H127.95C128.912 27.7269 129.489 28.1705 129.489 28.9746V29.0023C129.489 29.7509 128.884 30.25 127.95 30.25H126.055Z" fill="white"/>
<path d="M76.1601 19.8524C76.1601 20.8505 75.5556 21.4882 74.539 21.4882H56.4881C55.499 21.4882 54.8671 20.8782 54.8671 19.8524V1.6361C54.8671 0.637952 55.4715 0.000244141 56.4881 0.000244141H74.539C75.5281 0.000244141 76.1601 0.610225 76.1601 1.6361V19.8524Z" fill="#007DBE"/>
<path d="M61.7085 0.000488281H60.582V6.65482C60.4172 6.82118 60.2798 7.04299 60.2798 7.29253C60.2798 7.76388 60.6644 8.15205 61.1315 8.15205C61.5986 8.15205 61.9832 7.76388 61.9832 7.29253C61.9832 7.04299 61.8733 6.79346 61.681 6.65482V0.000488281H61.7085ZM61.2414 7.6807C61.2139 7.6807 61.1865 7.6807 61.159 7.6807C61.1315 7.6807 61.104 7.6807 61.0766 7.6807C60.8842 7.65297 60.7743 7.48662 60.7743 7.29253C60.7743 7.07072 60.9667 6.87664 61.1865 6.87664C61.4062 6.87664 61.5986 7.07072 61.5986 7.29253C61.5436 7.48662 61.4062 7.65297 61.2414 7.6807Z" fill="white"/>
<path d="M58.4939 0.000244141H57.3674V3.88194C57.1751 4.0483 57.0652 4.27011 57.0652 4.51965C57.0652 4.991 57.4498 5.37917 57.9169 5.37917C58.384 5.37917 58.7686 4.991 58.7686 4.51965C58.7686 4.27011 58.6587 4.02057 58.4664 3.88194V0.000244141H58.4939ZM58.0268 4.93554C57.9993 4.93554 57.9719 4.93554 57.9444 4.93554C57.9169 4.93554 57.8894 4.93554 57.862 4.93554C57.6696 4.88009 57.5597 4.74146 57.5597 4.54737C57.5597 4.32556 57.7521 4.13148 57.9719 4.13148C58.1917 4.13148 58.384 4.32556 58.384 4.54737C58.329 4.71373 58.2191 4.88009 58.0268 4.93554Z" fill="white"/>
<path d="M74.6217 4.04854V0.000488281C74.5942 0.000488281 74.5667 0.000488281 74.5393 0.000488281H73.4952V4.04854C73.3304 4.2149 73.193 4.43671 73.193 4.68625C73.193 5.1576 73.5776 5.54577 74.0447 5.54577C74.5118 5.54577 74.8965 5.1576 74.8965 4.68625C74.9239 4.43671 74.814 4.2149 74.6217 4.04854ZM74.1546 5.07442C74.1271 5.07442 74.0997 5.07442 74.0722 5.07442C74.0447 5.07442 74.0172 5.07442 73.9898 5.07442C73.7974 5.04669 73.6876 4.88034 73.6876 4.68625C73.6876 4.46444 73.8799 4.27035 74.0997 4.27035C74.3195 4.27035 74.5118 4.46444 74.5118 4.68625C74.4569 4.88034 74.3195 5.04669 74.1546 5.07442Z" fill="white"/>
<path d="M71.407 0.000488281H70.2805V1.2759C70.0882 1.44226 69.9783 1.66407 69.9783 1.91361C69.9783 2.38496 70.3629 2.77313 70.83 2.77313C71.2971 2.77313 71.6817 2.38496 71.6817 1.91361C71.6817 1.66407 71.5718 1.41453 71.3795 1.2759V0.000488281H71.407ZM70.9399 2.32951C70.9124 2.32951 70.8849 2.32951 70.8575 2.32951C70.83 2.32951 70.8025 2.32951 70.7751 2.32951C70.5827 2.30178 70.4728 2.13542 70.4728 1.94134C70.4728 1.71953 70.6651 1.52544 70.8849 1.52544C71.1047 1.52544 71.2971 1.71953 71.2971 1.94134C71.2696 2.10769 71.1322 2.27405 70.9399 2.32951Z" fill="white"/>
<path d="M64.8955 9.48267C64.4284 9.48267 64.0437 9.87084 64.0437 10.3422C64.0437 10.6194 64.1536 10.8413 64.346 11.0076V17.662H64.1811L58.5488 11.6731C58.3565 11.4512 58.0268 11.2849 57.7245 11.2849H57.23C56.7904 11.2849 56.4057 11.6453 56.4057 12.0889V17.5788C56.2409 17.7451 56.1035 17.9669 56.1035 18.2165C56.1035 18.6878 56.4882 19.076 56.9552 19.076C57.4223 19.076 57.807 18.6878 57.807 18.2165C57.807 17.9669 57.6971 17.7174 57.5047 17.5788V12.4217H57.6696C57.6696 12.4217 57.6696 12.4217 57.6971 12.4217L63.3019 18.4106C63.4942 18.6324 63.8239 18.7987 64.1262 18.7987H64.6207C65.0603 18.7987 65.4175 18.4383 65.4175 17.9669V11.0076C65.5823 10.8413 65.7197 10.6194 65.7197 10.3699C65.7472 9.87084 65.3625 9.48267 64.8955 9.48267ZM57.0651 18.6324C57.0377 18.6324 57.0102 18.6324 56.9827 18.6324C56.9552 18.6324 56.9278 18.6324 56.9003 18.6324C56.708 18.6046 56.5706 18.4383 56.5706 18.2442C56.5706 18.0224 56.7629 17.8283 56.9827 17.8283C57.2025 17.8283 57.3948 18.0224 57.3948 18.2442C57.3674 18.4106 57.23 18.5769 57.0651 18.6324ZM64.8955 10.7581C64.6757 10.7581 64.4833 10.564 64.4833 10.3422C64.4833 10.1481 64.6482 9.95401 64.8405 9.95401C64.868 9.95401 64.868 9.95401 64.8955 9.95401C64.9229 9.95401 64.9229 9.95401 64.9504 9.95401C65.1427 9.98174 65.3076 10.1481 65.3076 10.3422C65.3076 10.5917 65.1153 10.7581 64.8955 10.7581Z" fill="white"/>
<path d="M73.1379 14.473H67.6979C67.3132 14.473 67.011 14.168 67.011 13.7799V13.0867C67.011 12.6985 67.3132 12.3935 67.6979 12.3935H73.4401C73.6049 12.5876 73.8247 12.6985 74.072 12.6985C74.5391 12.6985 74.9237 12.3104 74.9237 11.839C74.9237 11.3677 74.5391 10.9795 74.072 10.9795C73.8247 10.9795 73.5775 11.0904 73.4401 11.2845H67.6979C66.7088 11.2845 65.8845 12.0885 65.8845 13.1144V13.8076C65.8845 14.8057 66.6813 15.6375 67.6979 15.6375H73.1379C73.5225 15.6375 73.8247 15.9425 73.8247 16.3307V17.0238C73.8247 17.412 73.5225 17.717 73.1379 17.717H67.3682C67.2033 17.5506 66.9835 17.412 66.7362 17.412C66.2692 17.412 65.8845 17.8002 65.8845 18.2715C65.8845 18.7429 66.2692 19.1311 66.7362 19.1311C66.9835 19.1311 67.2308 19.0201 67.3682 18.8261H73.1379C74.127 18.8261 74.9237 18.022 74.9237 16.9961V16.303C74.9237 15.3048 74.127 14.473 73.1379 14.473ZM74.072 11.4508C74.2643 11.4508 74.4292 11.5895 74.4567 11.7836C74.4567 11.8113 74.4567 11.839 74.4567 11.8667C74.4567 11.8945 74.4567 11.9222 74.4567 11.9499C74.4292 12.144 74.2643 12.2826 74.072 12.2826C73.8522 12.2826 73.6599 12.0885 73.6599 11.8667C73.6599 11.6172 73.8522 11.4508 74.072 11.4508ZM66.7362 18.632C66.5439 18.632 66.4065 18.4933 66.3516 18.327C66.3516 18.2993 66.3241 18.2438 66.3241 18.2161C66.3241 18.1884 66.3241 18.1329 66.3516 18.1052C66.4065 17.9388 66.5439 17.8002 66.7362 17.8002C66.956 17.8002 67.1484 17.9943 67.1484 18.2161C67.1209 18.4656 66.956 18.632 66.7362 18.632Z" fill="white"/>
</svg>
