<svg width="23" height="23" viewBox="0 0 23 23" fill="none" xmlns="http://www.w3.org/2000/svg">
<rect x="0.5" y="0.5" width="22" height="22" fill="#5D5FEF" fill-opacity="0.15" stroke="#5D5FEF"/>
<path d="M9.75 15.4286C9.33001 15.4286 9 15.7743 9 16.2143C9 16.6543 9.33001 17 9.75 17H14.25C14.67 17 15 16.6543 15 16.2143C15 15.7743 14.67 15.4286 14.25 15.4286H12.75V7.57143H14.25C14.67 7.57143 15 7.2257 15 6.78571C15 6.34573 14.67 6 14.25 6H9.75C9.33001 6 9 6.34573 9 6.78571C9 7.2257 9.33001 7.57143 9.75 7.57143H11.25V15.4286H9.75Z" fill="#5D5FEF"/>
</svg>
