<svg width="23" height="23" viewBox="0 0 23 23" fill="none" xmlns="http://www.w3.org/2000/svg">
<rect x="0.5" y="0.5" width="22" height="22" fill="#FDBB6D" fill-opacity="0.15" stroke="#FDBB6D"/>
<path d="M6.90289 6.12559H7.02486H14.9746C15.5975 6.12559 16.1633 6.38006 16.5729 6.79009C16.9824 7.19963 17.2373 7.76577 17.2373 8.38872V14.4123C17.2373 14.6101 17.2115 14.8025 17.1632 14.9862L17.1621 14.9923L17.1618 14.9922C17.0577 15.3834 16.8511 15.7328 16.573 16.011L16.573 16.011C16.1634 16.4205 15.5973 16.6755 14.9747 16.6755H7.02495C6.40203 16.6755 5.83622 16.421 5.42665 16.011C5.01712 15.6015 4.76218 15.0353 4.76218 14.4127V8.38915C4.76218 7.7662 5.01666 7.2004 5.42666 6.79048M6.90289 6.12559L5.49736 6.8612M6.90289 6.12559L6.90362 6.12926M6.90289 6.12559L7.02495 6.22557M5.42666 6.79048L5.49736 6.8612M5.42666 6.79048C5.42665 6.79048 5.42665 6.79048 5.42665 6.79049L5.49736 6.8612M5.42666 6.79048C5.80942 6.40772 6.329 6.16 6.90362 6.12926M5.49736 6.8612C5.86666 6.49189 6.36874 6.25435 6.92344 6.22839L6.90362 6.12926M6.90362 6.12926C6.94378 6.12711 6.9842 6.12602 7.02486 6.12602C7.02489 6.12602 7.02492 6.12602 7.02495 6.12602V6.22557M7.02495 6.22557V6.22559H7.02711H7.12684L7.12301 6.20641L7.12292 6.20598L7.02495 6.22557ZM16.4616 14.0168V8.38869C16.4616 7.98025 16.2945 7.60831 16.0244 7.33857L16.0243 7.33851C15.754 7.06826 15.3825 6.9012 14.9741 6.9012H7.02441C6.61596 6.9012 6.24402 7.0683 5.97428 7.33846L16.4616 14.0168ZM16.4616 14.0168L13.3803 10.9355L13.3802 10.9354L16.4616 14.0168ZM16.0252 15.4628L16.0253 15.4627C16.1591 15.3289 16.2676 15.17 16.343 14.9939L13.1069 11.7578L10.2642 14.6004C10.1127 14.7519 9.86736 14.7521 9.71607 14.6004L16.0252 15.4628ZM16.0252 15.4628C15.7555 15.7329 15.3835 15.9001 14.9751 15.9001H7.02536C6.61696 15.9001 6.24544 15.733 5.97518 15.4627C5.73928 15.2268 5.58182 14.9131 5.54584 14.5651L7.6133 12.4976L9.71596 14.6003L16.0252 15.4628ZM10.0503 9.0823C9.9723 9.0043 9.86457 8.95606 9.74548 8.95606C9.62639 8.95606 9.51868 9.0043 9.44065 9.08231C9.44065 9.08231 9.44064 9.08231 9.44064 9.08231M10.0503 9.0823L9.2144 9.38714C9.2144 9.24044 9.27396 9.10758 9.36994 9.0116L9.44064 9.08231M10.0503 9.0823C10.0503 9.0823 10.0503 9.08231 10.0503 9.08231C10.1283 9.16034 10.1766 9.26805 10.1766 9.38714C10.1766 9.50625 10.1283 9.61397 10.0503 9.69196C9.97229 9.76998 9.86457 9.81822 9.74548 9.81822C9.62639 9.81822 9.51866 9.76998 9.44065 9.69198M10.0503 9.0823L10.121 9.0116C10.025 8.91562 9.89218 8.85606 9.74548 8.85606L9.44065 9.69198M9.44064 9.08231C9.36264 9.16032 9.3144 9.26805 9.3144 9.38714C9.3144 9.50623 9.36264 9.61394 9.44065 9.69197M9.44064 9.08231L9.44065 9.69197M9.44065 9.69197C9.44065 9.69197 9.44065 9.69198 9.44065 9.69198M9.44065 9.69197L9.44065 9.69198M7.02486 6.22559V6.22602V6.22559ZM9.98943 13.778L7.88677 11.6754L7.88666 11.6752L9.98943 13.778ZM7.33854 11.6752L5.53691 13.4765V8.38869C5.53691 7.98036 5.70438 7.60878 5.97428 7.33846L7.33854 11.6752ZM10.9518 9.38714C10.9518 9.05431 10.8169 8.75268 10.5985 8.53425C10.3803 8.31571 10.0783 8.18079 9.74548 8.18079C9.41259 8.18079 9.11059 8.31613 8.89253 8.53419C8.67404 8.75232 8.53913 9.054 8.53913 9.38714C8.53913 9.71997 8.67407 10.0216 8.89247 10.24C9.1106 10.4586 9.41231 10.5935 9.74548 10.5935C10.0783 10.5935 10.3803 10.4582 10.5984 10.2402C10.8169 10.022 10.9518 9.72031 10.9518 9.38714Z" fill="#FDBB6D" stroke="#FDBB6D" stroke-width="0.2"/>
</svg>
