<svg width="23" height="23" viewBox="0 0 23 23" fill="none" xmlns="http://www.w3.org/2000/svg">
<rect x="0.5" y="0.5" width="22" height="22" fill="#EC7591" fill-opacity="0.15" stroke="#EC7591"/>
<g clip-path="url(#clip0_572_3947)">
<path d="M5.66663 7.6665C5.66663 8.21984 6.11329 8.6665 6.66663 8.6665H8.99996V15.6665C8.99996 16.2198 9.44663 16.6665 9.99996 16.6665C10.5533 16.6665 11 16.2198 11 15.6665V8.6665H13.3333C13.8866 8.6665 14.3333 8.21984 14.3333 7.6665C14.3333 7.11317 13.8866 6.6665 13.3333 6.6665H6.66663C6.11329 6.6665 5.66663 7.11317 5.66663 7.6665ZM17.3333 9.99984H13.3333C12.78 9.99984 12.3333 10.4465 12.3333 10.9998C12.3333 11.5532 12.78 11.9998 13.3333 11.9998H14.3333V15.6665C14.3333 16.2198 14.78 16.6665 15.3333 16.6665C15.8866 16.6665 16.3333 16.2198 16.3333 15.6665V11.9998H17.3333C17.8866 11.9998 18.3333 11.5532 18.3333 10.9998C18.3333 10.4465 17.8866 9.99984 17.3333 9.99984Z" fill="#EC7591"/>
</g>
<defs>
<clipPath id="clip0_572_3947">
<rect width="16" height="16" fill="white" transform="translate(4 4)"/>
</clipPath>
</defs>
</svg>
